<?xml version="1.0" encoding="utf-8"?>
<!-- Generator: Adobe Illustrator 26.3.1, SVG Export Plug-In . SVG Version: 6.00 Build 0)  -->
<svg version="1.1" id="Layer_1" xmlns="http://www.w3.org/2000/svg" xmlns:xlink="http://www.w3.org/1999/xlink" x="0px" y="0px"
	 viewBox="0 0 4000 4000" style="enable-background:new 0 0 4000 4000;" xml:space="preserve">
<style type="text/css">
	.st0{clip-path:url(#SVGID_00000025432712652740429020000015793970702837572263_);fill:url(#SVGID_1_);}
	.st1{fill:#FFFFFF;}
	.st2{filter:url(#Adobe_OpacityMaskFilter);}
	.st3{fill:url(#SVGID_00000097468901228556929100000004719628169249971645_);}
	.st4{mask:url(#SVGID_00000173881468413866478150000016050442589156104094_);fill-rule:evenodd;clip-rule:evenodd;fill:#CCCCCC;}
	.st5{filter:url(#Adobe_OpacityMaskFilter_00000051346793209583327220000009841070419963047573_);}
	.st6{fill:url(#SVGID_00000161610075484652051260000002545234905641822901_);}
	.st7{mask:url(#SVGID_00000045607964444966727690000014904062257769170593_);fill-rule:evenodd;clip-rule:evenodd;fill:#CCCCCC;}
	.st8{filter:url(#Adobe_OpacityMaskFilter_00000152947118848003971160000008017786321340568503_);}
	.st9{fill:url(#SVGID_00000004522399921062714770000001620907073788687012_);}
	.st10{mask:url(#SVGID_00000138531777296356706770000007755430186704886669_);fill-rule:evenodd;clip-rule:evenodd;fill:#CCCCCC;}
	.st11{filter:url(#Adobe_OpacityMaskFilter_00000142175780097465535120000003521047953908871820_);}
	.st12{fill:url(#SVGID_00000008840011512068553860000011071550008473230980_);}
	.st13{mask:url(#SVGID_00000103952554215573327660000005849072726121860999_);fill-rule:evenodd;clip-rule:evenodd;fill:#CCCCCC;}
	.st14{filter:url(#Adobe_OpacityMaskFilter_00000034800847322343806330000012869270810813963653_);}
	.st15{fill:url(#SVGID_00000018231310927886771870000001097872868704984713_);}
	.st16{mask:url(#SVGID_00000012468588448039302920000006544493023535109253_);fill-rule:evenodd;clip-rule:evenodd;fill:#CCCCCC;}
	
		.st17{clip-path:url(#SVGID_00000179605276567615721100000017845600810644498080_);fill:url(#SVGID_00000076605428756832133450000016036837023493778566_);}
	.st18{fill-rule:evenodd;clip-rule:evenodd;fill:#FFFFFF;}
</style>
<g>
	<defs>
		<path id="SVGID_17_" d="M2279.1,2274.45h-272.58h-0.25h-529.99v-0.06c-0.6,0-1.21-0.02-1.81-0.06l-217.56-0.8
			c-6.09,0.57-12.23,0.85-18.4,0.81c-5.26-0.03-9.82-0.2-13.55-0.47l-0.87-0.08c-59.51-4.71-121.14-36.17-167.34-97.94
			c-44.5-59.5-74.74-147.57-73.97-267.23c0.1-17.05,0.77-34.01,2.02-50.81c1.07-15.2,14.13-26.7,29.29-25.91l270.85-4.33
			c26.2-57.19,125.62-221.56,384.01-160.39c64.84,15.35,116.64,38.77,158.03,66.15c118.1-26.82,178.59-73.88,237.52-119.72
			c44.12-34.32,87.46-68.04,152.43-94.13c65.72-26.4,137.43-33.42,206.41-21.01c44.47,7.99,87.77,24.06,127.56,48.17
			c6.89-33.44,5.79-67.62-2.62-99.89c-11.32-43.45-35.94-83.43-72.15-113.53c-36.15-30.05-79.98-46.91-124.83-50.11
			c-44.75-3.18-90.52,7.33-130.66,32.01c-13.14,8.08-30.36,3.97-38.44-9.17c-7.87-12.8-4.17-29.47,8.17-37.79
			c61.37-45.81,134.6-67.19,206.98-64.58c72.81,2.63,144.78,29.57,202.91,80.35c58.16,50.79,94.54,118.46,106.94,190.24
			c11.49,66.52,2.39,136.63-29.05,200.14c29.4,48.97,46.82,103.53,51.86,159.21c6.87,75.97-9.32,154.03-49.58,222.84
			c22.77,4.03,42.09,9.03,58.39,14.85c72.13,25.72,92.72,67.32,89.52,111.38c-6.04,83.11-64.26,91.52-71.32,92.25
			c-1.02,0.11-2.06,0.17-3.11,0.17h-448.45C2296.79,2275,2288,2274.83,2279.1,2274.45"/>
	</defs>
	<clipPath id="SVGID_00000040548716985591608030000011291350782261322663_">
		<use xlink:href="#SVGID_17_"  style="overflow:visible;"/>
	</clipPath>
	<linearGradient id="SVGID_1_" gradientUnits="userSpaceOnUse" x1="1270.1462" y1="2370.8176" x2="2673.2522" y2="976.0475">
		<stop  offset="0" style="stop-color:#6A00B8"/>
		<stop  offset="0.52" style="stop-color:#114FEE"/>
		<stop  offset="1" style="stop-color:#16EA9E"/>
	</linearGradient>
	
		<rect x="982" y="1200.96" style="clip-path:url(#SVGID_00000040548716985591608030000011291350782261322663_);fill:url(#SVGID_1_);" width="1849.52" height="1074.03"/>
</g>
<path class="st1" d="M2599.39,1581.6c3.22,2.73,6.4,5.53,9.55,8.39c11.08,10.08,21.43,20.69,31.04,31.75
	c16.27-44.89,20.05-92.54,12.17-138.19c-10.28-59.54-40.43-115.63-88.59-157.7c-16.28-14.22-33.87-26.18-52.36-35.87l0.52,0.43
	c45.43,37.75,76.3,87.89,90.49,142.36C2614.73,1480.8,2614.27,1532.26,2599.39,1581.6"/>
<path class="st1" d="M1446.16,2218.53c-0.48-50.21,14.24-141.49,126.43-147.84c12.25-0.69,25.83-1.22,40.31-1.61
	c5.33-0.14,10.73-0.25,16.18-0.34l-4.81-239.88c-0.29-15.38,11.92-28.09,27.3-28.39c15.38-0.29,28.09,11.93,28.39,27.3l6.51,324.92
	c185.91,23.27,240.05-132.68,248.35-161.18c-3.67-30.53-35.53-212.42-278.56-269.95c-260.38-61.64-325.71,141.71-325.9,142.29
	l-0.08-0.02c-3.61,10.96-13.83,18.94-26.01,19.14l-145.17,2.32c0.28,3.38,0.42,6.81,0.42,10.27c0,64.3-48.24,117.32-110.5,124.87
	c10.86,50.77,29.43,91.19,52.48,122.01c35.89,48,82.65,72.3,127.13,75.71l0.46,0.03c4,0.29,7.2,0.45,9.62,0.47
	c4.59,0.03,9.15-0.19,13.66-0.63l0.36-0.04h0.02l0.09-0.01c3.36-0.35,6.67-0.81,9.96-1.4c28.58-5.16,54.68-19.61,73.67-40.04
	c18.45-19.84,30.01-45.28,30.19-73.05c0.04-6.46-0.52-13.09-1.73-19.8c-2.71-15.13,7.36-29.61,22.49-32.32
	c15.14-2.71,29.61,7.36,32.32,22.49c1.83,10.11,2.67,20.09,2.6,29.84c-0.28,42.7-17.52,81.23-45.04,110.83
	c-1.18,1.26-2.37,2.51-3.58,3.74L1446.16,2218.53z"/>
<path class="st1" d="M2631.17,2105.74c-1.06-0.05-2.13-0.16-3.18-0.32c-52.79-5.27-121.88-6.03-211.43-0.62
	c-15.37,0.9-28.58-10.83-29.48-26.21c-0.9-15.38,10.83-28.58,26.21-29.48c84.2-5.09,151.85-4.78,205.89-0.39
	c43.84-63.33,61.88-137.89,55.34-210.19c-4.67-51.66-21.91-102.21-51.27-146.71c-0.38-0.52-0.73-1.05-1.06-1.6
	c-14.18-21.22-31.13-41.06-50.81-58.95c-45.89-41.73-100.81-67.73-157.88-78c-58.69-10.56-119.78-4.56-175.83,17.96
	c-57.31,23.02-97.74,54.47-138.89,86.48c-56.46,43.91-114.24,88.85-217.22,119.06c101.69,97.32,109.38,214.27,109.41,214.76
	c0.29,3.74-0.16,7.37-1.25,10.73c-6.15,23.13-73.87,251.92-335.85,201.73c-13.77-2.63-23.23-14.98-22.64-28.58l-1.02-50.99
	c-5.32,0.09-10.64,0.2-15.98,0.35c-12.36,0.32-25.24,0.86-38.57,1.6c-64.77,3.66-73.94,59.47-73.71,92.15h497.91
	c87.75-46.57,57.79-142.03,57.7-142.31c-0.46-1.54-0.78-3.1-0.96-4.64c-5.26-28.86-9.11-57.47-11.53-85.73
	c-2.45-28.56-3.52-57.9-3.19-87.9c0.11-15.38,12.68-27.74,28.06-27.63c15.38,0.12,27.74,12.69,27.63,28.07
	c-0.29,27.03,0.78,54.7,3.19,82.88c0.6,7.06,1.29,14.09,2.05,21.08c68.56-100.02,207.14-132.91,207.62-133.02
	c14.96-3.68,30.06,5.46,33.74,20.42c3.68,14.96-5.47,30.07-20.42,33.74c-0.48,0.11-169.78,40.38-198.45,163.29
	c-12.79,54.84,5.86,86.96,37.82,105.14c31.07,17.67,74.37,24.73,116.68,26.62h42.7c1.9,0,3.76,0.19,5.55,0.55h424.24
	c3.55-0.69,17.81-5.64,20.34-40.43c1.45-19.99-10.8-39.91-52.61-54.83C2697.77,2115.89,2668.66,2109.66,2631.17,2105.74"/>
<defs>
	<filter id="Adobe_OpacityMaskFilter" filterUnits="userSpaceOnUse" x="1049.03" y="1895.55" width="309.65" height="323.1">
		<feColorMatrix  type="matrix" values="1 0 0 0 0  0 1 0 0 0  0 0 1 0 0  0 0 0 1 0"/>
	</filter>
</defs>
<mask maskUnits="userSpaceOnUse" x="1049.03" y="1895.55" width="309.65" height="323.1" id="SVGID_00000149357107596934853180000018050081733312398497_">
	<g class="st2">
		
			<linearGradient id="SVGID_00000002351842975308792490000015374928124758682007_" gradientUnits="userSpaceOnUse" x1="1333.6335" y1="2957.7754" x2="477.7355" y2="1913.6979" gradientTransform="matrix(1 0 0 1 312.806 -360.7795)">
			<stop  offset="0" style="stop-color:#FFFFFF"/>
			<stop  offset="1" style="stop-color:#000000"/>
		</linearGradient>
		
			<rect x="1049.03" y="1895.55" style="fill:url(#SVGID_00000002351842975308792490000015374928124758682007_);" width="309.65" height="323.1"/>
	</g>
</mask>
<path style="mask:url(#SVGID_00000149357107596934853180000018050081733312398497_);fill-rule:evenodd;clip-rule:evenodd;fill:#CCCCCC;" d="
	M1332.89,2133.8c-99.61-38.87-167.07-132.13-173.36-238.26c0,64.3-48.24,117.32-110.5,124.87c10.86,50.77,29.43,91.19,52.48,122.01
	c35.89,48,82.65,72.3,127.13,75.71l0.46,0.03c4,0.29,7.2,0.45,9.62,0.47c4.59,0.03,9.15-0.19,13.66-0.63l0.38-0.04l0.09-0.01
	c3.36-0.35,6.67-0.81,9.96-1.4c28.58-5.16,54.68-19.61,73.67-40.04c9.36-10.06,16.95-21.57,22.17-34.09
	C1350,2140,1341.4,2137.13,1332.89,2133.8"/>
<defs>
	
		<filter id="Adobe_OpacityMaskFilter_00000164479410450474798960000017167721612072908673_" filterUnits="userSpaceOnUse" x="1373.75" y="2151.45" width="82.59" height="67.09">
		<feColorMatrix  type="matrix" values="1 0 0 0 0  0 1 0 0 0  0 0 1 0 0  0 0 0 1 0"/>
	</filter>
</defs>
<mask maskUnits="userSpaceOnUse" x="1373.75" y="2151.45" width="82.59" height="67.09" id="SVGID_00000075148467853496944540000002833252643514912942_">
	<g style="filter:url(#Adobe_OpacityMaskFilter_00000164479410450474798960000017167721612072908673_);">
		
			<linearGradient id="SVGID_00000013179351963464647800000014749209804500445879_" gradientUnits="userSpaceOnUse" x1="1377.7836" y1="2905.5342" x2="521.7218" y2="1861.625" gradientTransform="matrix(1 0 0 1 332.2882 -360.7863)">
			<stop  offset="0" style="stop-color:#FFFFFF"/>
			<stop  offset="1" style="stop-color:#000000"/>
		</linearGradient>
		
			<rect x="1373.75" y="2151.45" style="fill:url(#SVGID_00000013179351963464647800000014749209804500445879_);" width="82.59" height="67.09"/>
	</g>
</mask>
<path style="mask:url(#SVGID_00000075148467853496944540000002833252643514912942_);fill-rule:evenodd;clip-rule:evenodd;fill:#CCCCCC;" d="
	M1414.55,2151.95c-7.64,23.43-20.54,44.65-37.22,62.57c-1.18,1.26-2.37,2.51-3.58,3.74l72.41,0.27
	c-0.18-18.81,1.78-43.38,10.19-67.09C1442.5,2152.67,1428.53,2152.85,1414.55,2151.95"/>
<defs>
	
		<filter id="Adobe_OpacityMaskFilter_00000054264352472863134000000003107942458852899727_" filterUnits="userSpaceOnUse" x="1679.97" y="1827.77" width="254.86" height="327.28">
		<feColorMatrix  type="matrix" values="1 0 0 0 0  0 1 0 0 0  0 0 1 0 0  0 0 0 1 0"/>
	</filter>
</defs>
<mask maskUnits="userSpaceOnUse" x="1679.97" y="1827.77" width="254.86" height="327.28" id="SVGID_00000077321606849829334580000012850142920752052401_">
	<g style="filter:url(#Adobe_OpacityMaskFilter_00000054264352472863134000000003107942458852899727_);">
		
			<linearGradient id="SVGID_00000061470869433155501860000013114309267863600308_" gradientUnits="userSpaceOnUse" x1="1570.7794" y1="2639.1018" x2="1280.5913" y2="1918.7152" gradientTransform="matrix(1 0 0 1 350.6598 -364.595)">
			<stop  offset="0" style="stop-color:#FFFFFF"/>
			<stop  offset="1" style="stop-color:#000000"/>
		</linearGradient>
		
			<rect x="1679.97" y="1827.77" style="fill:url(#SVGID_00000061470869433155501860000013114309267863600308_);" width="254.86" height="327.28"/>
	</g>
</mask>
<path style="mask:url(#SVGID_00000077321606849829334580000012850142920752052401_);fill-rule:evenodd;clip-rule:evenodd;fill:#CCCCCC;" d="
	M1934.83,1991.51c-34.61,67.8-114.37,99.11-185.86,72.96c0,0-23-78.9-69.01-236.69l6.51,324.92
	C1872.39,2175.96,1926.54,2020.01,1934.83,1991.51"/>
<defs>
	
		<filter id="Adobe_OpacityMaskFilter_00000053505191705903823100000009421074584557347716_" filterUnits="userSpaceOnUse" x="1501.94" y="2076.22" width="560.62" height="142.31">
		<feColorMatrix  type="matrix" values="1 0 0 0 0  0 1 0 0 0  0 0 1 0 0  0 0 0 1 0"/>
	</filter>
</defs>
<mask maskUnits="userSpaceOnUse" x="1501.94" y="2076.22" width="560.62" height="142.31" id="SVGID_00000001657903950155846830000009654902907590502784_">
	<g style="filter:url(#Adobe_OpacityMaskFilter_00000053505191705903823100000009421074584557347716_);">
		
			<linearGradient id="SVGID_00000137814116579075921310000008205773330084932495_" gradientUnits="userSpaceOnUse" x1="1119.5767" y1="2855.2542" x2="1752.293" y2="2174.7014" gradientTransform="matrix(1 0 0 1 339.9786 -360.7863)">
			<stop  offset="0" style="stop-color:#FFFFFF"/>
			<stop  offset="1" style="stop-color:#000000"/>
		</linearGradient>
		
			<rect x="1501.94" y="2076.22" style="fill:url(#SVGID_00000137814116579075921310000008205773330084932495_);" width="560.62" height="142.31"/>
	</g>
</mask>
<path style="mask:url(#SVGID_00000001657903950155846830000009654902907590502784_);fill-rule:evenodd;clip-rule:evenodd;fill:#CCCCCC;" d="
	M1948.34,2091.76c-44.83,67.7-132.54,143.27-294.47,112.25c-13.77-2.63-23.23-14.98-22.64-28.58l-1.02-50.99
	c-5.32,0.09-10.64,0.2-15.98,0.35c-12.36,0.32-25.24,0.86-38.57,1.6c-64.77,3.66-73.94,59.47-73.71,92.15h497.91
	c87.75-46.57,57.79-142.03,57.7-142.31C2025.82,2098.78,1985.11,2104.57,1948.34,2091.76"/>
<defs>
	
		<filter id="Adobe_OpacityMaskFilter_00000039815772365275221270000015388961292581485488_" filterUnits="userSpaceOnUse" x="2121.22" y="1923.49" width="651.52" height="295.6">
		<feColorMatrix  type="matrix" values="1 0 0 0 0  0 1 0 0 0  0 0 1 0 0  0 0 0 1 0"/>
	</filter>
</defs>
<mask maskUnits="userSpaceOnUse" x="2121.22" y="1923.49" width="651.52" height="295.6" id="SVGID_00000100355199449351233120000003247725343518199967_">
	<g style="filter:url(#Adobe_OpacityMaskFilter_00000039815772365275221270000015388961292581485488_);">
		
			<linearGradient id="SVGID_00000047030972577107262220000017800043410674040737_" gradientUnits="userSpaceOnUse" x1="2702.1914" y1="2905.2498" x2="1441.0966" y2="1961.5109" gradientTransform="matrix(1 0 0 1 377.1329 -360.7532)">
			<stop  offset="0" style="stop-color:#FFFFFF"/>
			<stop  offset="1" style="stop-color:#000000"/>
		</linearGradient>
		
			<rect x="2121.22" y="1923.48" style="fill:url(#SVGID_00000047030972577107262220000017800043410674040737_);" width="651.52" height="295.6"/>
	</g>
</mask>
<path style="mask:url(#SVGID_00000100355199449351233120000003247725343518199967_);fill-rule:evenodd;clip-rule:evenodd;fill:#CCCCCC;" d="
	M2125.29,2086.78c-12.79,54.84,5.86,86.96,37.82,105.14c31.07,17.67,74.37,24.73,116.68,26.62h42.7c1.9,0,3.76,0.19,5.55,0.55
	h424.24c3.55-0.69,17.81-5.64,20.34-40.43c1.45-19.99-10.8-39.91-52.61-54.83c-22.25-7.94-51.36-14.16-88.85-18.09
	c-1.06-0.05-2.13-0.16-3.18-0.32c-51.26-5.12-117.89-5.98-203.7-1.07c-2.58,0.24-5.16,0.39-7.73,0.45
	c-0.85,0.05-1.68,0.06-2.52,0.04c-40.85,0.1-78.93-21.95-99.04-58.11c-21.78-39.18-18.35-87.53,8.74-123.24
	C2323.27,1923.6,2153.97,1963.86,2125.29,2086.78"/>
<g>
	<defs>
		<path id="SVGID_30_" d="M1463.64,1829.72c27.68,0,50.12,22.44,50.12,50.13c0,27.68-22.44,50.13-50.12,50.13
			c-27.68,0-50.13-22.44-50.13-50.13C1413.51,1852.17,1435.96,1829.72,1463.64,1829.72"/>
	</defs>
	<clipPath id="SVGID_00000037679587755906911000000010278854090794953128_">
		<use xlink:href="#SVGID_30_"  style="overflow:visible;"/>
	</clipPath>
	
		<linearGradient id="SVGID_00000133493734669605357930000014095690172338060440_" gradientUnits="userSpaceOnUse" x1="1120.8333" y1="2220.6135" x2="2523.9409" y2="825.8416">
		<stop  offset="0" style="stop-color:#6A00B8"/>
		<stop  offset="0.52" style="stop-color:#114FEE"/>
		<stop  offset="1" style="stop-color:#16EA9E"/>
	</linearGradient>
	
		<rect x="1413.51" y="1829.72" style="clip-path:url(#SVGID_00000037679587755906911000000010278854090794953128_);fill:url(#SVGID_00000133493734669605357930000014095690172338060440_);" width="100.24" height="100.25"/>
</g>
<path class="st18" d="M1447.29,1850.16c9.8,0,17.75,7.95,17.75,17.75c0,9.8-7.95,17.75-17.75,17.75c-9.8,0-17.75-7.95-17.75-17.75
	C1429.53,1858.1,1437.48,1850.16,1447.29,1850.16"/>
</svg>
